#!OML:ASF F:\VICON\USERDATA\INSTALL\rory3\rory3.ASF
:FULLY-SPECIFIED
:DEGREES
406
root -6.07577 16.655 -6.0352 160.5 -57.2188 -150.585
lowerback -1.08254 1.44177 3.75275
upperback -4.96325 1.83435 -0.730628
thorax -4.37709 0.694512 -2.90108
lowerneck -16.5082 -2.58575 -11.8419
upperneck 18.5439 -4.78195 17.6801
head 9.27138 -1.44641 7.61509
rclavicle -3.04141e-014 -6.36111e-014
rhumerus -14.6447 -11.7157 -52.8217
rradius 48.4599
rwrist 12.6571
rhand -33.2215 -57.9332
rfingers 7.12502
rthumb -6.42808 -1527.82
lclavicle -3.04141e-014 -6.36111e-014
lhumerus -46.0777 0.71386 44.7287
lradius 38.4763
lwrist 27.4664
lhand -44.5113 327.781
lfingers 7.12502
lthumb -17.3134 -2.96986
rfemur -29.1067 13.5454 32.424
rtibia 43.7008
rfoot -17.2834 -14.4492
rtoes 1.90946
lfemur -36.8557 7.72202 9.57722
ltibia 52.1112
lfoot -21.1944 23.1976
ltoes 16.734
407
root -6.1027 16.7334 -6.02393 166.327 -57.9812 -156.077
lowerback -2.07739 1.20972 2.53647
upperback -5.19568 1.41699 -1.68373
thorax -4.08998 0.502281 -3.1775
lowerneck -16.6065 -2.57723 -11.803
upperneck 18.8769 -4.77297 17.4652
head 9.39418 -1.45477 7.54558
rclavicle 1.59028e-015 9.54166e-015
rhumerus -14.8456 -11.8862 -54.2744
rradius 48.3194
rwrist 13.1984
rhand -32.7449 -58.1173
rfingers 7.12502
rthumb -5.96793 -1528.01
lclavicle 1.59028e-015 9.54166e-015
lhumerus -45.6636 0.866391 45.2275
lradius 38.4303
lwrist 27.4185
lhand -44.1237 327.988
lfingers 7.12502
lthumb -16.9403 -2.73082
rfemur -30.3742 12.3666 28.9512
rtibia 43.9665
rfoot -17.8779 -13.0418
rtoes 3.51215
lfemur -37.8441 5.67451 5.56375
ltibia 52.2895
lfoot -21.0551 23.2501
ltoes 15.1678
408
root -6.10257 16.7067 -6.14305 164.807 -56.7208 -154.92
lowerback -1.71849 1.19173 3.26603
upperback -4.9201 1.45025 -1.01713
thorax -4.00332 0.52008 -2.90102
lowerneck -16.6741 -2.68549 -11.8542
upperneck 19.247 -4.85225 17.0317
head 9.53516 -1.53066 7.3992
rclavicle -1.49089e-014 2.70347e-014
rhumerus -15.1829 -11.8526 -55.5164
rradius 48.2284
rwrist 13.008
rhand -32.5169 -58.8299
rfingers 7.12502
rthumb -5.7478 -1528.73
lclavicle -1.49089e-014 2.70347e-014
lhumerus -45.3274 1.02687 46.0096
lradius 38.6682
lwrist 28.0837
lhand -43.5899 327.42
lfingers 7.12502
lthumb -16.4263 -3.25512
rfemur -29.6229 14.7133 30.4253
rtibia 44.1236
rfoot -18.0218 -14.251
rtoes 5.30788
lfemur -37.2851 5.01722 6.82951
ltibia 53.0061
lfoot -21.3584 21.2897
ltoes 14.8762
409
root -6.1178 16.71 -6.21432 165.841 -56.0984 -156.006
lowerback -1.91932 1.22638 3.38898
upperback -4.87965 1.48991 -0.98237
thorax -3.84292 0.539313 -2.92938
lowerneck -17.0287 -2.88549 -12.6655
upperneck 20 -5.11961 17.5127
head 9.94577 -1.66161 7.74323
rclavicle -6.69904e-014 -9.54166e-015
rhumerus -15.7605 -11.6538 -56.5732
rradius 48.1136
rwrist 12.5348
rhand -32.8157 -59.5795
rfingers 7.12502
rthumb -6.0363 -1529.47
lclavicle -6.69904e-014 -9.54166e-015
lhumerus -44.8536 0.649347 46.9633
lradius 39.1054
lwrist 28.9458
lhand -43.456 327.717
lfingers 7.12502
lthumb -16.2975 -2.94782
rfemur -29.6913 15.6636 30.2149
rtibia 44.4382
rfoot -18.2464 -14.4993
rtoes 5.98926
lfemur -37.3662 4.04487 6.19862
ltibia 53.4787
lfoot -21.3942 20.1521
ltoes 13.486
410
root -6.13696 16.7014 -6.23176 167.119 -55.0736 -156.634
lowerback -2.18128 1.41459 4.77508
upperback -5.20104 1.71131 -1.27608
thorax -3.97705 0.572654 -4.01418
lowerneck -17.0407 -2.92888 -12.5684
upperneck 20.5807 -5.34307 17.5812
head 10.1922 -1.76267 7.75371
rclavicle 5.38706e-014 -3.18055e-015
rhumerus -16.4982 -11.3504 -58.0663
rradius 47.9153
rwrist 11.9806
rhand -33.2271 -60.6405
rfingers 7.12502
rthumb -6.43348 -1349.48
lclavicle 5.38706e-014 -3.18055e-015
lhumerus -44.3235 0.394525 47.1808
lradius 39.3363
lwrist 28.8664
lhand -43.7306 329.049
lfingers 7.12502
lthumb -16.5619 -1.63728
rfemur -30.5095 16.0093 30.1219
rtibia 44.7486
rfoot -18.3814 -13.8776
rtoes 6.03751
lfemur -38.0906 3.33251 5.7646
ltibia 54.1181
lfoot -21.1973 19.672
ltoes 11.408
411
root -6.15246 16.7009 -6.29168 168.639 -54.5286 -158.252
lowerback -2.38703 1.42106 4.38131
upperback -5.17457 1.7076 -1.21308
thorax -3.84271 0.590406 -3.7209
lowerneck -16.936 -3.03357 -12.6592
upperneck 20.9031 -5.43293 17.2092
head 10.2911 -1.8536 7.62889
rclavicle -1.55052e-014 3.49861e-014
rhumerus -16.9903 -11.0527 -59.0628
rradius 47.7365
rwrist 11.5895
rhand -33.3428 -61.1347
rfingers 7.12502
rthumb -6.5452 -1348.99
lclavicle -1.55052e-014 3.49861e-014
lhumerus -43.8153 1.24308 47.5839
lradius 39.3567
lwrist 27.812
lhand -42.4528 329.009
lfingers 7.12502
lthumb -15.3313 -1.57944
rfemur -30.6857 16.5312 29.5193
rtibia 45.0494
rfoot -18.3794 -14.0857
rtoes 5.31689
lfemur -38.3187 2.20388 4.66461
ltibia 54.6648
lfoot -21.3878 18.7569
ltoes 10.3779
